<?xml version="1.0" encoding="utf-8"?>
<!-- Generator: Adobe Illustrator 23.0.4, SVG Export Plug-In . SVG Version: 6.00 Build 0)  -->
<svg version="1.1" id="Layer_1" xmlns="http://www.w3.org/2000/svg" xmlns:xlink="http://www.w3.org/1999/xlink" x="0px" y="0px"
	 viewBox="0 0 1451.34 1451.34" style="enable-background:new 0 0 1451.34 1451.34;" xml:space="preserve">
<style type="text/css">
	.st0{fill:#000000;}
	.st1{fill:#000000;}
	.st2{fill:#FFFFFF;}
</style>
<rect class="st0" width="1451.34" height="1451.34"/>
<circle class="st1" cx="724.32" cy="721.83" r="684.84"/>
<g>
	<g>
		<g>
			<path class="st2" d="M678.68,218.74l-21.61,84.17l-136.64-30.89l-28.2,113.1l4.3,0.91c19.83,4.34,36.49,16.11,47.1,33.19
				c10.6,17.09,13.77,37.25,8.9,56.77l-97.66,391.67c-9.71,39.02-48.13,62.87-87.37,54.23l-13.01-2.81l-28.57,114.63l141.19,32.02
				l-21.01,84.13l62.85,17.58L742.7,236.63L678.68,218.74z"/>
		</g>
		<g>
			<path class="st2" d="M963.43,381.43l-59.44-14.82l-28.3,113.52l59.34,15.23c26.83,6.68,49.49,23.44,63.77,47.18
				c14.29,23.74,18.47,51.57,11.8,78.36l-0.84,3.34c-6.67,26.76-23.47,49.44-47.29,63.72c-23.77,14.24-51.62,18.41-78.42,11.66
				l-59.3-15.22l-31.5,126.36l67.56,17.31c26.7,6.64,49.32,23.44,63.64,47.32c14.33,23.8,18.56,51.66,11.89,78.4l-0.77,3.07
				c-6.69,26.84-23.5,49.53-47.33,63.8c-23.76,14.24-51.59,18.41-78.39,11.66l-67.53-17.29l-28.52,114.37l67.68,16.87
				c17.56,4.37,35.56,6.59,53.47,6.59c101.72,0,189.95-68.94,214.56-167.67l0.76-3.04c13.83-55.46,5.57-113.53-23.23-163.53
				l-13.39-23.24l22-15.36c43.92-30.63,75.17-75.85,88.02-127.34l0.84-3.34C1153.98,531.17,1081.72,410.93,963.43,381.43z"/>
		</g>
		<g>
			<polygon class="st2" points="664.95,996.19 592.49,978.12 563.78,1093.29 615.82,1105.33 595.81,1187.2 660.28,1205.19 
				711.51,1007.13 			"/>
		</g>
		<g>
			<polygon class="st2" points="676.71,647.91 645.2,774.3 762.44,802.85 793.95,676.48 			"/>
		</g>
		<g>
			<polygon class="st2" points="840.95,471.9 841.11,471.26 844.87,472.23 892.89,274.07 829.21,256.27 807.38,340.26 
				754.71,328.07 726,443.24 			"/>
		</g>
	</g>
</g>
</svg>
